# xmcd
#
# Track frame offsets:
#        187
#        27975
#        45102
#        61970
#        83395
#        101712
#        121317
#        138730
#        158100
#        175937
#        192825
#        211775
#
# Disc length: 3069 seconds
#
# Revision: 0
# Processed by: cddbd v1.5.1PL2 Copyright (c) Steve Scherf et al.
# Submitted via: ExactAudioCopy v0.95b4
#
DISCID=950bfb0c
DTITLE=Clubland - The Sectrets of Inner Clubland
DYEAR=1995
DGENRE=Pop
TTITLE0=Come Lay Your Love Down
TTITLE1=Peace of Luv
TTITLE2=Anytime You Want Me (I'll be there)
TTITLE3=Carry Me
TTITLE4=Cry
TTITLE5=Reach Out
TTITLE6=Sure
TTITLE7=Gimmie Love Gimmie All
TTITLE8=(Let It Go) On+On+On
TTITLE9=Open Your Eyes
TTITLE10=I Found Love
TTITLE11=Expressions of Love
EXTD=
EXTT0=
EXTT1=
EXTT2=
EXTT3=
EXTT4=
EXTT5=
EXTT6=
EXTT7=
EXTT8=
EXTT9=
EXTT10=
EXTT11=
PLAYORDER=
